<?xml version="1.0" encoding="UTF-8"?>
<svg width="60px" height="60px" viewBox="0 0 60 60" version="1.1" xmlns="http://www.w3.org/2000/svg" xmlns:xlink="http://www.w3.org/1999/xlink">
    <title>advert</title>
    <g id="advert" stroke="none" stroke-width="1" fill="none" fill-rule="evenodd">
        <g id="Group-7" transform="translate(43.746590, 28.754131)"></g>
        <path d="M17.6201308,39.2443834 C17.1346966,39.2443834 16.6493065,39.1383852 16.1948509,38.9246495 C15.3617337,38.5371476 14.7334367,37.8438043 14.4201695,36.9732385 L12.2048256,30.7992047 C11.8984283,29.9425181 11.9362945,29.0146114 12.3149913,28.1874626 C12.6936881,27.3603138 13.3667209,26.7278301 14.2119122,26.4080739 L14.236012,26.3993861 L15.9074462,25.8224638 L19.8338403,24.3019762 L24.7481123,22.4217852 L29.2922275,35.0616724 L18.8145871,39.0218352 C18.4255655,39.1712772 18.02276,39.2443834 17.6199942,39.2443834 L17.6201308,39.2443834 Z M14.807468,28.0413525 C13.9536838,28.3715136 13.5130209,29.3411514 13.8245696,30.2082475 L16.0381953,36.3822812 C16.1931147,36.8132269 16.504681,37.1555591 16.9160838,37.3467099 C17.3274822,37.5378563 17.7888165,37.555232 18.2122495,37.3953673 L27.0942497,34.0381502 L23.7256026,24.6718933 L20.4447356,25.9264958 L16.4925187,27.4556579 L14.807468,28.0413525 Z" id="Fill-1" fill="#43536D"></path>
        <path d="M42.335147,37.6282537 C42.2456395,37.6282537 42.1561277,37.6213051 42.0648973,37.6074037 L27.5591578,35.3310318 L23.250665,23.347739 L33.1241567,12.558416 C33.5338365,12.1100991 34.132878,11.9137435 34.7267152,12.0353647 C35.3205965,12.1570038 35.7973937,12.5705604 36.0039324,13.1457477 L43.9459988,35.3013605 C44.1542825,35.8834875 44.0458354,36.5177506 43.6568138,36.9956054 C43.3245937,37.4004875 42.8443197,37.6282537 42.3348253,37.6282537 L42.335147,37.6282537 Z M28.8297122,33.7705836 L42.3250117,35.8870774 L34.38603,13.7385822 L25.2268528,23.7476433 L28.8297122,33.7705836 Z" id="Fill-2" fill="#43536D"></path>
        <path d="M23.8273076,46.9998488 C23.4227923,46.9998488 23.0389177,46.7704767 22.8513275,46.3829792 L18.4498549,37.3089869 L26.2077242,34.4748211 L27.1079984,36.9857609 C27.4402185,37.9136676 27.2887407,38.9406417 26.7017601,39.7313131 L26.3282279,40.233501 L28.2802321,44.1328533 C28.4213808,44.414357 28.4351515,44.7427832 28.3198212,45.0346919 C28.2044909,45.3266229 27.9721118,45.5542734 27.679494,45.660236 L24.1955255,46.9339669 C24.0750306,46.9774062 23.9493756,47 23.8271578,47 L23.8273076,46.9998488 Z M20.8407681,38.2834246 L24.147458,45.1038212 L26.4265221,44.2714677 L24.3144251,40.0523593 L25.3283022,38.686545 C25.5658459,38.3668112 25.6278163,37.9515241 25.4918278,37.5761621 L25.1785429,36.700347 L20.8407681,38.2834246 Z" id="Fill-3" fill="#43536D"></path>
        <path d="M43.4324586,21.8373259 L45.6637207,21.021897 C46.1109058,20.8584704 46.6059044,21.0885021 46.769331,21.5356871 C46.769956,21.5373972 46.7705755,21.5391093 46.7711896,21.5408232 C46.9330994,21.9927183 46.6998252,22.4905616 46.2489651,22.6553313 L44.0177029,23.4707602 C43.5705178,23.6341868 43.0755192,23.4041551 42.9120926,22.95697 C42.9114677,22.95526 42.9108481,22.9535479 42.910234,22.9518339 C42.7483242,22.4999389 42.9815984,22.0020956 43.4324586,21.8373259 Z" id="Fill-4" fill="#43536D"></path>
        <path d="M39.3806544,16.0042005 L41.0587034,14.2920493 C41.3898967,13.9541254 41.9323233,13.9486691 42.2702473,14.2798624 C42.2721104,14.2816885 42.2739653,14.2835231 42.2758117,14.2853661 C42.6146699,14.623599 42.6176796,15.1717103 42.2825563,15.5136441 L40.6045073,17.2257953 C40.273314,17.5637192 39.7308874,17.5691755 39.3929635,17.2379822 C39.3911003,17.2361561 39.3892454,17.2343215 39.387399,17.2324785 C39.0485408,16.8942456 39.0455311,16.3461343 39.3806544,16.0042005 Z" id="Fill-5" fill="#43536D"></path>
        <path d="M43.8292143,29.6186249 C43.8747477,29.1422116 44.2978691,28.7929144 44.7742823,28.8384478 C44.7749054,28.8385073 44.7755284,28.8385675 44.7761513,28.8386284 L47.1356873,29.0693023 C47.6133367,29.1159985 47.9630368,29.5405439 47.9173757,30.0182933 C47.8718424,30.4947066 47.448721,30.8440038 46.9723077,30.7984705 C46.9716847,30.7984109 46.9710617,30.7983507 46.9704388,30.7982898 L44.6109027,30.5676159 C44.1332534,30.5209197 43.7835533,30.0963743 43.8292143,29.6186249 Z" id="Fill-6" fill="#43536D"></path>
    </g>
</svg>