<?xml version="1.0" encoding="UTF-8"?>
<svg width="60px" height="60px" viewBox="0 0 60 60" version="1.1" xmlns="http://www.w3.org/2000/svg" xmlns:xlink="http://www.w3.org/1999/xlink">
    <title>gallery</title>
    <g id="gallery" stroke="none" stroke-width="1" fill="none" fill-rule="evenodd">
        <g id="Group" transform="translate(7.000000, 25.000000)" fill="#43536D" fill-rule="nonzero" stroke="#43536D" stroke-width="0.5">
            <path d="M0.34033176,9.99994383 C0.252808701,10.0014144 0.167446196,9.97396915 0.0988502431,9.92224326 C0.0343893857,9.8740494 -0.00220982779,9.79962541 0.000103430539,9.72167383 L0.000103430539,0.324025453 C-0.00214629141,0.235806449 0.0334838948,0.150498311 0.0988502431,0.0878711218 C0.164132478,0.0296793959 0.250892693,-0.00170209316 0.34033176,0.000526369214 L13.7068439,0.000526369214 C13.7870678,-0.00417168038 13.8657893,0.0227367734 13.9245174,0.0749311585 C13.9776249,0.130324144 14.0046522,0.203939543 13.9993426,0.278735581 L13.9993426,9.66020901 C14.0046522,9.73500505 13.9776249,9.80862044 13.9245174,9.86401343 C13.8657893,9.91620781 13.7870678,9.94311627 13.7068439,9.93841822 L0.34033176,9.93841822 L0.34033176,9.99994383 Z M0.636231647,8.51502225 L3.59863166,4.52951354 C3.71111166,4.38862655 3.92171327,4.35980453 4.07139125,4.46481372 L5.9828365,5.73616512 L8.65954007,2.65321886 C8.7162086,2.56764099 8.81509632,2.51572341 8.92142848,2.51572341 C9.02776064,2.51572341 9.12664836,2.56764099 9.18331688,2.65321886 L13.4143452,8.6735368 L13.4143452,0.611939637 L0.643033943,0.611939637 L0.636231647,8.51502225 Z M13.135451,9.3819998 L8.84320207,3.31639198 L6.29234098,6.29905353 C6.23860877,6.3534479 6.16852625,6.39073161 6.09167324,6.40580823 C6.01882319,6.42598039 5.94022123,6.40604386 5.88760435,6.35404837 L4.00336829,5.07946198 L0.809690201,9.3819998 L13.135451,9.3819998 Z M4.42170951,2.4267695 C4.42323028,2.64627363 4.36210557,2.86205717 4.24484981,3.05112273 C4.13177479,3.24318179 3.96905806,3.40462988 3.77209022,3.5201964 C3.58049075,3.6379129 3.35736798,3.70079363 3.12927322,3.70135589 C2.90018641,3.70033218 2.67610537,3.63751375 2.48305508,3.5201964 C2.28014317,3.4042648 2.10976528,3.24332039 1.98648745,3.05112273 C1.86317311,2.86407718 1.79829768,2.64754504 1.79940988,2.4267695 C1.79880243,2.20882281 1.85863468,1.99457621 1.97288286,1.80565126 C2.08643888,1.61201345 2.25040168,1.44937709 2.4490436,1.33334259 C2.63946794,1.21617836 2.86166881,1.15434852 3.08845944,1.15540445 C3.31840249,1.15553504 3.54403546,1.21477636 3.74147988,1.32687261 C3.94310906,1.44046764 4.11242805,1.5992935 4.23464636,1.7894763 C4.35838112,1.98110973 4.42318523,2.2018866 4.42170951,2.4267695 L4.42170951,2.4267695 Z M3.77889324,2.4267695 C3.77815084,2.25670607 3.70874816,2.09341288 3.58502707,1.97063579 C3.47179171,1.84211339 3.30554216,1.76658971 3.12927322,1.76359638 C2.95103418,1.76687333 2.78127098,1.83657248 2.65651363,1.95769583 C2.5172145,2.07728007 2.43908595,2.24831496 2.4422413,2.4267695 C2.43342681,2.60586804 2.50085897,2.78078952 2.62930445,2.91201812 C2.74435482,3.03437036 2.90908002,3.10387406 3.08165715,3.10289305 C3.26494039,3.09962073 3.43908127,3.02613544 3.56462018,2.89907816 C3.70160302,2.77657487 3.77916626,2.6056065 3.77889324,2.4267695 Z" id="Shape"></path>
        </g>
        <g id="Group-Copy" transform="translate(23.000000, 25.000000)" fill="#43536D" fill-rule="nonzero" stroke="#43536D" stroke-width="0.5">
            <path d="M0.34033176,9.99994383 C0.252808701,10.0014144 0.167446196,9.97396915 0.0988502431,9.92224326 C0.0343893857,9.8740494 -0.00220982779,9.79962541 0.000103430539,9.72167383 L0.000103430539,0.324025453 C-0.00214629141,0.235806449 0.0334838948,0.150498311 0.0988502431,0.0878711218 C0.164132478,0.0296793959 0.250892693,-0.00170209316 0.34033176,0.000526369214 L13.7068439,0.000526369214 C13.7870678,-0.00417168038 13.8657893,0.0227367734 13.9245174,0.0749311585 C13.9776249,0.130324144 14.0046522,0.203939543 13.9993426,0.278735581 L13.9993426,9.66020901 C14.0046522,9.73500505 13.9776249,9.80862044 13.9245174,9.86401343 C13.8657893,9.91620781 13.7870678,9.94311627 13.7068439,9.93841822 L0.34033176,9.93841822 L0.34033176,9.99994383 Z M0.636231647,8.51502225 L3.59863166,4.52951354 C3.71111166,4.38862655 3.92171327,4.35980453 4.07139125,4.46481372 L5.9828365,5.73616512 L8.65954007,2.65321886 C8.7162086,2.56764099 8.81509632,2.51572341 8.92142848,2.51572341 C9.02776064,2.51572341 9.12664836,2.56764099 9.18331688,2.65321886 L13.4143452,8.6735368 L13.4143452,0.611939637 L0.643033943,0.611939637 L0.636231647,8.51502225 Z M13.135451,9.3819998 L8.84320207,3.31639198 L6.29234098,6.29905353 C6.23860877,6.3534479 6.16852625,6.39073161 6.09167324,6.40580823 C6.01882319,6.42598039 5.94022123,6.40604386 5.88760435,6.35404837 L4.00336829,5.07946198 L0.809690201,9.3819998 L13.135451,9.3819998 Z M4.42170951,2.4267695 C4.42323028,2.64627363 4.36210557,2.86205717 4.24484981,3.05112273 C4.13177479,3.24318179 3.96905806,3.40462988 3.77209022,3.5201964 C3.58049075,3.6379129 3.35736798,3.70079363 3.12927322,3.70135589 C2.90018641,3.70033218 2.67610537,3.63751375 2.48305508,3.5201964 C2.28014317,3.4042648 2.10976528,3.24332039 1.98648745,3.05112273 C1.86317311,2.86407718 1.79829768,2.64754504 1.79940988,2.4267695 C1.79880243,2.20882281 1.85863468,1.99457621 1.97288286,1.80565126 C2.08643888,1.61201345 2.25040168,1.44937709 2.4490436,1.33334259 C2.63946794,1.21617836 2.86166881,1.15434852 3.08845944,1.15540445 C3.31840249,1.15553504 3.54403546,1.21477636 3.74147988,1.32687261 C3.94310906,1.44046764 4.11242805,1.5992935 4.23464636,1.7894763 C4.35838112,1.98110973 4.42318523,2.2018866 4.42170951,2.4267695 L4.42170951,2.4267695 Z M3.77889324,2.4267695 C3.77815084,2.25670607 3.70874816,2.09341288 3.58502707,1.97063579 C3.47179171,1.84211339 3.30554216,1.76658971 3.12927322,1.76359638 C2.95103418,1.76687333 2.78127098,1.83657248 2.65651363,1.95769583 C2.5172145,2.07728007 2.43908595,2.24831496 2.4422413,2.4267695 C2.43342681,2.60586804 2.50085897,2.78078952 2.62930445,2.91201812 C2.74435482,3.03437036 2.90908002,3.10387406 3.08165715,3.10289305 C3.26494039,3.09962073 3.43908127,3.02613544 3.56462018,2.89907816 C3.70160302,2.77657487 3.77916626,2.6056065 3.77889324,2.4267695 Z" id="Shape"></path>
        </g>
        <g id="Group-Copy-2" transform="translate(39.000000, 25.000000)" fill="#43536D" fill-rule="nonzero" stroke="#43536D" stroke-width="0.5">
            <path d="M0.34033176,9.99994383 C0.252808701,10.0014144 0.167446196,9.97396915 0.0988502431,9.92224326 C0.0343893857,9.8740494 -0.00220982779,9.79962541 0.000103430539,9.72167383 L0.000103430539,0.324025453 C-0.00214629141,0.235806449 0.0334838948,0.150498311 0.0988502431,0.0878711218 C0.164132478,0.0296793959 0.250892693,-0.00170209316 0.34033176,0.000526369214 L13.7068439,0.000526369214 C13.7870678,-0.00417168038 13.8657893,0.0227367734 13.9245174,0.0749311585 C13.9776249,0.130324144 14.0046522,0.203939543 13.9993426,0.278735581 L13.9993426,9.66020901 C14.0046522,9.73500505 13.9776249,9.80862044 13.9245174,9.86401343 C13.8657893,9.91620781 13.7870678,9.94311627 13.7068439,9.93841822 L0.34033176,9.93841822 L0.34033176,9.99994383 Z M0.636231647,8.51502225 L3.59863166,4.52951354 C3.71111166,4.38862655 3.92171327,4.35980453 4.07139125,4.46481372 L5.9828365,5.73616512 L8.65954007,2.65321886 C8.7162086,2.56764099 8.81509632,2.51572341 8.92142848,2.51572341 C9.02776064,2.51572341 9.12664836,2.56764099 9.18331688,2.65321886 L13.4143452,8.6735368 L13.4143452,0.611939637 L0.643033943,0.611939637 L0.636231647,8.51502225 Z M13.135451,9.3819998 L8.84320207,3.31639198 L6.29234098,6.29905353 C6.23860877,6.3534479 6.16852625,6.39073161 6.09167324,6.40580823 C6.01882319,6.42598039 5.94022123,6.40604386 5.88760435,6.35404837 L4.00336829,5.07946198 L0.809690201,9.3819998 L13.135451,9.3819998 Z M4.42170951,2.4267695 C4.42323028,2.64627363 4.36210557,2.86205717 4.24484981,3.05112273 C4.13177479,3.24318179 3.96905806,3.40462988 3.77209022,3.5201964 C3.58049075,3.6379129 3.35736798,3.70079363 3.12927322,3.70135589 C2.90018641,3.70033218 2.67610537,3.63751375 2.48305508,3.5201964 C2.28014317,3.4042648 2.10976528,3.24332039 1.98648745,3.05112273 C1.86317311,2.86407718 1.79829768,2.64754504 1.79940988,2.4267695 C1.79880243,2.20882281 1.85863468,1.99457621 1.97288286,1.80565126 C2.08643888,1.61201345 2.25040168,1.44937709 2.4490436,1.33334259 C2.63946794,1.21617836 2.86166881,1.15434852 3.08845944,1.15540445 C3.31840249,1.15553504 3.54403546,1.21477636 3.74147988,1.32687261 C3.94310906,1.44046764 4.11242805,1.5992935 4.23464636,1.7894763 C4.35838112,1.98110973 4.42318523,2.2018866 4.42170951,2.4267695 L4.42170951,2.4267695 Z M3.77889324,2.4267695 C3.77815084,2.25670607 3.70874816,2.09341288 3.58502707,1.97063579 C3.47179171,1.84211339 3.30554216,1.76658971 3.12927322,1.76359638 C2.95103418,1.76687333 2.78127098,1.83657248 2.65651363,1.95769583 C2.5172145,2.07728007 2.43908595,2.24831496 2.4422413,2.4267695 C2.43342681,2.60586804 2.50085897,2.78078952 2.62930445,2.91201812 C2.74435482,3.03437036 2.90908002,3.10387406 3.08165715,3.10289305 C3.26494039,3.09962073 3.43908127,3.02613544 3.56462018,2.89907816 C3.70160302,2.77657487 3.77916626,2.6056065 3.77889324,2.4267695 Z" id="Shape"></path>
        </g>
        <path d="M15.8413746,37.151303 C15.9470705,37.240564 16.0046217,37.3653035 15.9996095,37.4942696 C16.0053253,37.6284788 15.9480913,37.7588385 15.8413746,37.8546752 C15.7406092,37.945654 15.603181,37.9978812 15.4589736,38 L7.56700836,38 C7.40886782,37.996892 7.26089799,37.930592 7.16482801,37.8197972 C7.05964605,37.727382 7.00036377,37.6019394 7,37.4710176 C7.00041703,37.3451906 7.06011989,37.2251747 7.16482801,37.139677 C7.27192602,37.0470697 7.41705088,36.9967276 7.56700836,37.0001652 L15.478753,37.0001652 C15.6167994,37.0088278 15.7461649,37.0627463 15.8413746,37.151303 Z" id="Path" fill="#43536D"></path>
        <path d="M31.8413746,37.151303 C31.9470705,37.240564 32.0046217,37.3653035 31.9996095,37.4942696 C32.0053253,37.6284788 31.9480913,37.7588385 31.8413746,37.8546752 C31.7406092,37.945654 31.603181,37.9978812 31.4589736,38 L23.5670084,38 C23.4088678,37.996892 23.260898,37.930592 23.164828,37.8197972 C23.0596461,37.727382 23.0003638,37.6019394 23,37.4710176 C23.000417,37.3451906 23.0601199,37.2251747 23.164828,37.139677 C23.271926,37.0470697 23.4170509,36.9967276 23.5670084,37.0001652 L31.478753,37.0001652 C31.6167994,37.0088278 31.7461649,37.0627463 31.8413746,37.151303 Z" id="Path-Copy-2" fill="#43536D"></path>
        <path d="M47.8413746,37.151303 C47.9470705,37.240564 48.0046217,37.3653035 47.9996095,37.4942696 C48.0053253,37.6284788 47.9480913,37.7588385 47.8413746,37.8546752 C47.7406092,37.945654 47.603181,37.9978812 47.4589736,38 L39.5670084,38 C39.4088678,37.996892 39.260898,37.930592 39.164828,37.8197972 C39.0596461,37.727382 39.0003638,37.6019394 39,37.4710176 C39.000417,37.3451906 39.0601199,37.2251747 39.164828,37.139677 C39.271926,37.0470697 39.4170509,36.9967276 39.5670084,37.0001652 L47.478753,37.0001652 C47.6167994,37.0088278 47.7461649,37.0627463 47.8413746,37.151303 Z" id="Path-Copy-4" fill="#43536D"></path>
        <path d="M13.8766247,39.151303 C13.9588326,39.240564 14.0035946,39.3653035 13.9996963,39.4942696 C14.0041419,39.6284788 13.9596266,39.7588385 13.8766247,39.8546752 C13.7982516,39.945654 13.691363,39.9978812 13.5792017,40 L7.4410065,40 C7.3180083,39.996892 7.20292066,39.930592 7.12819957,39.8197972 C7.04639137,39.727382 7.00028293,39.6019394 7,39.4710176 C7.00032435,39.3451906 7.04675992,39.2251747 7.12819957,39.139677 C7.21149802,39.0470697 7.32437291,38.9967276 7.4410065,39.0001652 L13.5945856,39.0001652 C13.7019551,39.0088278 13.8025727,39.0627463 13.8766247,39.151303 Z" id="Path-Copy" fill="#43536D"></path>
        <path d="M29.8766247,39.151303 C29.9588326,39.240564 30.0035946,39.3653035 29.9996963,39.4942696 C30.0041419,39.6284788 29.9596266,39.7588385 29.8766247,39.8546752 C29.7982516,39.945654 29.691363,39.9978812 29.5792017,40 L23.4410065,40 C23.3180083,39.996892 23.2029207,39.930592 23.1281996,39.8197972 C23.0463914,39.727382 23.0002829,39.6019394 23,39.4710176 C23.0003244,39.3451906 23.0467599,39.2251747 23.1281996,39.139677 C23.211498,39.0470697 23.3243729,38.9967276 23.4410065,39.0001652 L29.5945856,39.0001652 C29.7019551,39.0088278 29.8025727,39.0627463 29.8766247,39.151303 Z" id="Path-Copy-3" fill="#43536D"></path>
        <path d="M45.8766247,39.151303 C45.9588326,39.240564 46.0035946,39.3653035 45.9996963,39.4942696 C46.0041419,39.6284788 45.9596266,39.7588385 45.8766247,39.8546752 C45.7982516,39.945654 45.691363,39.9978812 45.5792017,40 L39.4410065,40 C39.3180083,39.996892 39.2029207,39.930592 39.1281996,39.8197972 C39.0463914,39.727382 39.0002829,39.6019394 39,39.4710176 C39.0003244,39.3451906 39.0467599,39.2251747 39.1281996,39.139677 C39.211498,39.0470697 39.3243729,38.9967276 39.4410065,39.0001652 L45.5945856,39.0001652 C45.7019551,39.0088278 45.8025727,39.0627463 45.8766247,39.151303 Z" id="Path-Copy-5" fill="#43536D"></path>
    </g>
</svg>