<?xml version="1.0" encoding="UTF-8"?>
<svg width="60px" height="60px" viewBox="0 0 60 60" version="1.1" xmlns="http://www.w3.org/2000/svg" xmlns:xlink="http://www.w3.org/1999/xlink">
    <title>prsentation</title>
    <g id="prsentation" stroke="none" stroke-width="1" fill="none" fill-rule="evenodd">
        <path d="M10.8624252,19.5403195 C10.7146981,19.3987632 10.6285055,19.20483 10.6224252,19.0003195 C10.6108307,18.7688733 10.6977082,18.5433274 10.8615706,18.379465 C11.025433,18.2156025 11.2509789,18.1287251 11.4824252,18.1403195 L35.3824252,18.1403195 C35.6143094,18.1319401 35.8378861,18.2272351 35.9924252,18.4003195 C36.1519581,18.5593 36.2418734,18.7750969 36.2425047,19.0003195 C36.2455862,19.2175616 36.1543855,19.4254991 35.9924252,19.5703195 C35.831003,19.7323208 35.6111106,19.8224407 35.3824252,19.8203195 L11.4824252,19.8203195 C11.252702,19.8223816 11.0308864,19.7365175 10.8624252,19.5803195 L10.8624252,19.5403195 Z" id="Path" fill="#43536D" fill-rule="nonzero"></path>
        <path d="M10.8624252,30.5403195 C10.7146981,30.3987632 10.6285055,30.20483 10.6224252,30.0003195 C10.6108307,29.7688733 10.6977082,29.5433274 10.8615706,29.379465 C11.025433,29.2156025 11.2509789,29.1287251 11.4824252,29.1403195 L35.3824252,29.1403195 C35.6143094,29.1319401 35.8378861,29.2272351 35.9924252,29.4003195 C36.1519581,29.5593 36.2418734,29.7750969 36.2425047,30.0003195 C36.2455862,30.2175616 36.1543855,30.4254991 35.9924252,30.5703195 C35.831003,30.7323208 35.6111106,30.8224407 35.3824252,30.8203195 L11.4824252,30.8203195 C11.252702,30.8223816 11.0308864,30.7365175 10.8624252,30.5803195 L10.8624252,30.5403195 Z" id="Path" fill="#43536D" fill-rule="nonzero"></path>
        <circle id="Oval" fill="#43536D" fill-rule="nonzero" cx="49.1418614" cy="18.7206527" r="2"></circle>
        <circle id="Oval-Copy" fill="#43536D" fill-rule="nonzero" cx="49.1418614" cy="41.7206527" r="2"></circle>
        <circle id="Oval-Copy-2" fill="#43536D" fill-rule="nonzero" cx="49.1418614" cy="29.7206527" r="4"></circle>
        <path d="M35.9903685,41.6403195 C36.1564196,41.7990107 36.2472912,42.0207374 36.2403685,42.2503195 C36.2459069,42.4800588 36.1570796,42.7020358 35.9945822,42.8645332 C35.8320848,43.0270306 35.6101078,43.1158578 35.3803685,43.1103195 L11.4803685,43.1103195 C11.2465185,43.1137429 11.0218286,43.0195182 10.8603685,42.8503195 C10.7071721,42.6879935 10.6213822,42.4735187 10.6203685,42.2503195 C10.6219066,42.0301842 10.7078038,41.8190202 10.8603685,41.6603195 C11.0177848,41.4842287 11.2442208,41.3856195 11.4803685,41.3903195 L35.3803685,41.3903195 C35.6162281,41.3935553 35.8389605,41.4994444 35.9903685,41.6803195 L35.9903685,41.6403195 Z" id="Path" fill="#43536D" fill-rule="nonzero"></path>
    </g>
</svg>