<?xml version="1.0" encoding="UTF-8"?>
<svg width="60px" height="60px" viewBox="0 0 60 60" version="1.1" xmlns="http://www.w3.org/2000/svg" xmlns:xlink="http://www.w3.org/1999/xlink">
    <title>accordion</title>
    <g id="accordion" stroke="none" stroke-width="1" fill="none" fill-rule="evenodd">
        <g id="Group" transform="translate(9.000000, 10.000000)" fill="#43536D" fill-rule="nonzero">
            <path d="M40.2606317,11 C40.7452471,11.4720908 41.0130745,12.1235631 41.0006317,12.8 L41.0006317,28.17 C41.0142467,28.8554641 40.746876,29.5166648 40.2606317,30 C39.7955743,30.497155 39.1412648,30.773419 38.4606317,30.76 L2.58063172,30.76 C1.89428293,30.772828 1.23403513,30.4971201 0.760631719,30 C0.260913661,29.5242316 -0.0150237562,28.8598033 0.000631718958,28.17 L0.000631718958,12.79 C-0.00994208755,12.1128274 0.266086078,11.4627085 0.760631719,11 C1.24154839,10.5162845 1.89861759,10.2491245 2.58063172,10.26 L38.4606317,10.26 C39.1370687,10.2475572 39.7885409,10.5153847 40.2606317,11 Z M39.2606317,12.8 C39.2404087,12.3557727 38.884859,12.0002231 38.4406317,11.98 L2.58063172,11.98 C2.35104964,11.9730773 2.12932292,12.0639489 1.97063172,12.23 C1.80867134,12.3748204 1.71747065,12.5827579 1.72026318,12.8 L1.72026318,28.17 C1.71370905,28.3995821 1.80458066,28.6213088 1.97063172,28.78 C2.12932292,28.9460511 2.35104964,29.0369227 2.58063172,29.03 L38.4606317,29.03 C38.6778738,29.0331611 38.8858113,28.9419604 39.0306317,28.78 C39.1966828,28.6213088 39.2875544,28.3995821 39.2810003,28.17 L39.2606317,12.8 Z M3.67063172,1.48 C3.49454091,1.32258376 3.39593167,1.09614774 3.40047104,0.86 C3.39615943,0.626776682 3.49498707,0.403499429 3.67063172,0.25 C3.82590508,0.0910499146 4.03842921,0.000997316768 4.26063172,0 L36.7406317,0 C36.9657871,0.00621616041 37.1787476,0.103672649 37.3306317,0.27 C37.500969,0.41892735 37.5992744,0.633742873 37.6006317,0.86 C37.5971309,1.08865522 37.4994448,1.30573532 37.3306317,1.46 C37.175123,1.61989803 36.9635736,1.71312319 36.7406317,1.72 L4.26063172,1.72 C4.04049639,1.71846198 3.82933243,1.63256478 3.67063172,1.48 Z M3.67063172,6.6 C3.49766621,6.44877641 3.3991026,6.22974617 3.40047104,6 C3.39593167,5.76385226 3.49454091,5.53741624 3.67063172,5.38 C3.82933243,5.22743522 4.04049639,5.14153802 4.26063172,5.14 L36.7406317,5.14 C36.9648038,5.14128835 37.1784173,5.23542315 37.3306317,5.4 C37.4994448,5.55426468 37.5971309,5.77134478 37.6006317,6 C37.5967736,6.22569697 37.4989104,6.43954634 37.3306317,6.59 C37.1787476,6.75632735 36.9657871,6.85378384 36.7406317,6.86 L4.26063172,6.86 C4.03696373,6.8563813 3.82422586,6.76263241 3.67063172,6.6 Z M37.3306317,34.4 C37.5014396,34.5589116 37.5984648,34.7817014 37.5984648,35.015 C37.5984648,35.2482986 37.5014396,35.4710884 37.3306317,35.63 C37.1718259,35.7836964 36.9615167,35.8728105 36.7406317,35.88 L4.26063172,35.88 C4.03493475,35.8761419 3.82108537,35.7782787 3.67063172,35.61 C3.49887054,35.4599796 3.40031913,35.2430527 3.40031913,35.015 C3.40031913,34.7869473 3.49887054,34.5700204 3.67063172,34.42 C3.82108537,34.2517213 4.03493475,34.1538581 4.26063172,34.15 L36.7406317,34.15 C36.962606,34.152101 37.1747241,34.2419815 37.3306317,34.4 Z M37.3306317,39.52 C37.5067225,39.6774162 37.6053318,39.9038523 37.6008789,40.14 C37.6065063,40.3735036 37.5074267,40.5973501 37.3306317,40.75 C37.1747241,40.9080185 36.962606,40.997899 36.7406317,41 L4.26063172,41 C4.03493475,40.9961419 3.82108537,40.8982787 3.67063172,40.73 C3.50029448,40.5810726 3.40198907,40.3662571 3.40063172,40.14 C3.40413255,39.9113448 3.50181859,39.6942647 3.67063172,39.54 C3.82488377,39.3783024 4.03720971,39.284735 4.26063172,39.28 L36.7406317,39.28 C36.9603669,39.2835228 37.170832,39.3691358 37.3306317,39.52 L37.3306317,39.52 Z" id="Shape"></path>
        </g>
    </g>
</svg>