<?xml version="1.0" encoding="UTF-8"?>
<svg width="60px" height="60px" viewBox="0 0 60 60" version="1.1" xmlns="http://www.w3.org/2000/svg" xmlns:xlink="http://www.w3.org/1999/xlink">
    <title>code</title>
    <g id="code" stroke="none" stroke-width="1" fill="none" fill-rule="evenodd">
        <g id="Group" transform="translate(11.000000, 16.000000)" fill="#43536D" fill-rule="nonzero">
            <path d="M8.1821141,22.0183344 C7.80171691,22.0094087 7.44107452,21.8471196 7.1821141,21.5683344 L0.392114102,14.4983344 C0.123025252,14.2374783 -0.0193186586,13.8724939 0.00211410238,13.4983344 C0.00581408977,13.1208813 0.160704002,12.7606722 0.432114102,12.4983344 L7.1121141,5.88833441 C7.37654673,5.62467903 7.73900099,5.48332187 8.1121141,5.49833441 C8.49427225,5.50870104 8.8555684,5.67489726 9.1121141,5.95833441 C9.38234581,6.21842978 9.52490299,6.58396101 9.5021141,6.95833441 C9.50424668,7.3369947 9.34841262,7.69939949 9.0721141,7.95833441 L3.3721141,13.6183344 L9.2021141,19.6883344 C9.43458204,19.9685052 9.55563016,20.3245291 9.5421141,20.6883344 C9.54424668,21.0669947 9.38841262,21.4293995 9.1121141,21.6883344 C8.86049009,21.9212225 8.52425259,22.0405326 8.1821141,22.0183344 L8.1821141,22.0183344 Z M14.4721141,27.8183344 C14.2630144,27.962748 14.0161738,28.0427105 13.7621141,28.0485713 C13.548295,28.0522405 13.336355,28.0078015 13.1421141,27.9183344 C12.780245,27.7746236 12.4966191,27.4837252 12.3621141,27.1183344 C12.2165408,26.7730508 12.2165408,26.383618 12.3621141,26.0383344 L23.6421141,0.888334409 C23.7802668,0.52983064 24.0636103,0.246487079 24.4221141,0.108334409 C24.7676248,-0.0361114695 25.1566034,-0.0361114695 25.5021141,0.108334409 C25.8490424,0.256997081 26.1225112,0.537662378 26.2621141,0.888334409 C26.4119122,1.22927248 26.4119122,1.61739634 26.2621141,1.95833441 L15.0021141,27.2083344 C14.9022125,27.4750639 14.7155492,27.7004686 14.4721141,27.8483344 L14.4721141,27.8183344 Z M30.6121141,21.5683344 L37.3321141,14.4683344 C37.601203,14.2074783 37.7435469,13.8424939 37.7221141,13.4683344 C37.7184141,13.0908813 37.5635242,12.7306722 37.2921141,12.4683344 L30.6121141,5.88833441 C30.3497834,5.62147363 29.9858504,5.47953977 29.6121141,5.49833441 C29.2355872,5.50636231 28.8769559,5.66057375 28.6121141,5.92833441 C28.3451729,6.19206115 28.1971381,6.5531216 28.2021141,6.92833441 C28.2088102,7.30123324 28.35511,7.65806186 28.6121141,7.92833441 L34.3121141,13.5483344 L28.5321141,19.6583344 C28.2583321,19.9160477 28.1150996,20.2833105 28.1421141,20.6583344 C28.1400089,21.041151 28.3042024,21.4060255 28.5921141,21.6583344 C28.8609957,21.9150868 29.2204002,22.0552546 29.5921141,22.0483344 C29.9810657,22.0522838 30.3528197,21.8882747 30.6121141,21.5983344 L30.6121141,21.5683344 Z" id="Shape"></path>
        </g>
    </g>
</svg>