<?xml version="1.0" encoding="UTF-8"?>
<svg width="60px" height="60px" viewBox="0 0 60 60" version="1.1" xmlns="http://www.w3.org/2000/svg" xmlns:xlink="http://www.w3.org/1999/xlink">
    <title>download</title>
    <g id="download" stroke="none" stroke-width="1" fill="none" fill-rule="evenodd">
        <g id="Group-3" transform="translate(9.000000, 11.000000)" fill="#43536D">
            <path d="M32.2882396,25.7182757 L22.8728906,25.7182757 L22.8728906,18.5536376 C22.8728906,18.5536376 22.7314535,18.348943 22.5496057,18.348943 L18.8318295,18.348943 C18.6701871,18.348943 18.5287499,18.348943 18.5287499,18.5536376 L18.5287499,25.697315 L7.07218016,25.697315 C3.16748065,25.697315 0,22.4887519 0,18.5326768 C0,14.5766018 3.16715737,11.3680387 7.07218016,11.3680387 C7.47628627,7.67076315 9.45136295,4.33440509 12.4821588,2.23374734 C15.5129546,0.130534995 19.2963576,-0.52704228 22.8473188,0.429880363 C26.3958876,1.38680301 29.3556901,3.86364029 30.9546571,7.21264028 C33.5434578,6.67275748 36.2383606,7.28940239 38.3475359,8.90390886 C40.4564525,10.5158542 41.7799162,12.9721893 41.9744044,15.6434373 C42.1714077,18.3146853 41.2242541,20.9424398 39.3729956,22.853927 C37.5216723,24.7678378 34.9480014,25.7810924 32.3085742,25.6352188 L32.2882396,25.7182757 Z M24.8927746,23.6713298 L32.2882396,23.6713298 C36.2484795,23.6713298 39.4612847,20.4166531 39.4612847,16.4045081 C39.4612847,12.3923632 36.2486088,9.13768645 32.2882396,9.13768645 C31.7149133,9.14024759 31.1441344,9.21444856 30.590994,9.3628505 L29.7423711,9.58801455 L29.3988809,8.76923619 C28.1638034,5.70392653 25.6028052,3.38835583 22.4560147,2.4953634 C19.311552,1.59981638 15.934712,2.22669929 13.3057593,4.19436124 C10.6768066,6.16202319 9.09296933,9.24773027 9.01214811,12.5563809 L9.01214811,13.7026706 L7.880651,13.5184454 L7.29469715,13.5184454 C5.95610375,13.4928602 4.66044259,14.0097124 3.69563117,14.9513076 C2.73081976,15.8954573 2.17767932,17.1876205 2.1524631,18.543714 C2.10195307,21.3710539 4.32202797,23.7020176 7.11288173,23.7531749 L16.4480561,23.7531749 L16.4480561,18.5539323 C16.4531058,17.9296171 16.7107251,17.3334286 17.1603174,16.9087118 C17.6124119,16.4814144 18.2160365,16.2639206 18.8322821,16.3023049 L22.6308795,16.3023049 C23.8608492,16.3125364 24.861028,17.3078958 24.8938737,18.5539454 L24.8927746,23.6713298 Z" id="Fill-1"></path>
            <path d="M20.8517135,37.9999804 C20.336475,38.0025122 19.8490131,37.7594333 19.538401,37.3449284 L14.1233791,29.5868397 C13.7950445,29.1262801 13.7470561,28.5173187 14.0021473,28.0107241 C14.2749222,27.475957 14.8229676,27.1458977 15.4165187,27.1510068 L16.4267839,27.1510068 L16.4267839,18.5538341 C16.4318337,17.9243966 16.691981,17.3256665 17.1466101,16.9009498 C17.6037543,16.4736523 18.2124157,16.2561651 18.8312476,16.3022198 L22.629845,16.3022198 C23.8598147,16.3124578 24.8599935,17.3078106 24.8928392,18.5538603 L24.8928392,27.2329109 L26.2668,27.2329109 C26.8603316,27.2277951 27.4083836,27.5578611 27.6811714,28.0926281 C27.9362625,28.5992489 27.8882741,29.2081973 27.5599395,29.6687437 L22.1650907,37.385566 C21.8443339,37.7821626 21.3594001,38.0098812 20.8517782,37.9996498 L20.8517135,37.9999804 Z M16.3257251,29.2802891 L20.8517135,35.6667603 L25.3777019,29.2802891 L22.872244,29.2802891 L22.872244,18.6361704 C22.872244,18.6361704 22.7308069,18.4314758 22.5489591,18.4314758 L18.831183,18.4314758 C18.6695405,18.4314758 18.5281034,18.4314758 18.5281034,18.6361704 L18.5281034,29.2802891 L16.3257251,29.2802891 Z" id="Fill-2"></path>
        </g>
    </g>
</svg>