<?xml version="1.0" encoding="UTF-8"?>
<svg width="60px" height="60px" viewBox="0 0 60 60" version="1.1" xmlns="http://www.w3.org/2000/svg" xmlns:xlink="http://www.w3.org/1999/xlink">
    <title>hero</title>
    <g id="hero" stroke="none" stroke-width="1" fill="none" fill-rule="evenodd">
        <g id="Group" transform="translate(13.000000, 13.000000)" fill="#43536D" fill-rule="nonzero">
            <path d="M0.862536888,23.9402443 C0.637577637,23.942719 0.422505185,23.8479414 0.272536888,23.6802443 C0.10372376,23.5259796 0.00603771572,23.3088995 0.00239140075,23.0802443 L0.00239140075,0.860244309 C-0.00193539726,0.627020991 0.0968922395,0.403743737 0.272536888,0.250244309 C0.42648011,0.0893563518 0.639867304,-0.00106195098 0.862536888,0.000244308557 L33.3325369,0.000244308557 C33.5622762,-0.00529400965 33.7842532,0.0835332435 33.9467506,0.246030637 C34.109248,0.408528031 34.1980752,0.630505037 34.1927812,0.860244309 L34.1927812,23.0802443 C34.1915233,23.3034435 34.1057334,23.5179183 33.9525369,23.6802443 C33.7940835,23.8537594 33.5673583,23.9488377 33.3325369,23.9402443 L0.862536888,23.9402443 Z M9.59253689,14.6402443 L1.52253689,23.6402443 C1.37403947,23.8180455 1.15419305,23.9206405 0.922536888,23.9202443 C0.693541633,23.9212083 0.471152741,23.8435486 0.292536888,23.7002443 C0.113725223,23.5691056 0.00645085126,23.3619551 0.00239711583,23.1402443 C-0.00127075378,22.912454 0.0728166007,22.690192 0.212536888,22.5102443 L8.81253689,13.0002443 C8.94760101,12.8365754 9.1414991,12.732445 9.35253689,12.7102443 C9.55668934,12.6793821 9.76426711,12.7376495 9.92253689,12.8702443 L15.0025369,16.4402443 L22.1425369,7.50024431 C22.3077451,7.29707697 22.5556768,7.17912954 22.8175369,7.17912954 C23.079397,7.17912954 23.3273287,7.29707697 23.4925369,7.50024431 L34.0025369,22.5902443 C34.1352314,22.7903411 34.1853972,23.0340038 34.1425369,23.2702443 C34.1124458,23.4882357 33.988136,23.6820128 33.8025369,23.8002443 C33.6051264,23.9209587 33.3698046,23.9637445 33.1425369,23.9202443 C32.9126953,23.893528 32.7052522,23.76979 32.5725369,23.5802443 L22.7625369,9.51024431 L15.8725369,18.1602443 C15.742779,18.3464871 15.5383281,18.4669671 15.3125369,18.4902443 C15.0898133,18.5192641 14.8644229,18.4620221 14.6825369,18.3302443 L9.59253689,14.6402443 Z M0.862536888,29.0702472 C0.636279762,29.068887 0.421464239,28.9705815 0.272536888,28.8002443 C0.102199652,28.651317 0.00389424294,28.4365014 0.00253688848,28.2102443 C0.00603771572,27.9815891 0.10372376,27.764509 0.272536888,27.6102443 C0.425452159,27.4466525 0.638618916,27.3527146 0.862536888,27.3502443 L14.5625369,27.3502443 C14.7770279,27.350597 14.9823933,27.4370666 15.1325369,27.5902443 C15.2951144,27.7553695 15.3850987,27.9785307 15.3825901,28.2102443 C15.3846581,28.4389297 15.2945382,28.6588222 15.1325369,28.8202443 C14.986184,28.9800776 14.7792521,29.0708372 14.5625369,29.0702472 L0.862536888,29.0702472 Z M0.862536888,34.1902443 C0.648840091,34.2044405 0.437790966,34.1364755 0.272536888,34.0002443 C0.082422049,33.831628 -0.017543244,33.583566 0.00253688848,33.3302443 C-0.00193539726,33.097021 0.0968922395,32.8737437 0.272536888,32.7202443 C0.42648011,32.5593564 0.639867304,32.468938 0.862536888,32.4702303 L14.5625369,32.4702303 C14.7792521,32.4696514 14.986184,32.560411 15.1325369,32.7202443 C15.2945382,32.8816664 15.3846581,33.1015589 15.3825901,33.3302443 C15.3850987,33.5619579 15.2951144,33.7851191 15.1325369,33.9502443 C14.9823933,34.103422 14.7770279,34.1898916 14.5625369,34.1902443 L0.862536888,34.1902443 Z M1.72253689,22.1902443 L32.4725369,22.1902443 L32.4725369,1.72024431 L1.72253689,1.72024431 L1.72253689,22.1902443 Z M10.8725369,7.00024431 C10.8921756,7.94655192 10.5320335,8.86131279 9.87253689,9.54024431 C9.24179068,10.2302051 8.34731239,10.6192668 7.41253689,10.6102443 C6.47430732,10.6325259 5.57277768,10.2456347 4.94253689,9.55024431 C4.28246157,8.86762604 3.92244874,7.94959335 3.94253689,7.00024431 C3.92491151,6.06021531 4.28515103,5.15241171 4.94253689,4.48024431 C5.57096311,3.80236061 6.45831471,3.42414517 7.38253689,3.44024431 C8.31373423,3.42859894 9.20675758,3.80976745 9.84253689,4.49024431 C10.5093773,5.1543966 10.8806397,6.05912328 10.8725369,7.00024431 L10.8725369,7.00024431 Z M9.14253689,7.00024431 C9.15249904,6.50736407 8.96948722,6.03009795 8.63253689,5.67024431 C8.31067785,5.32105699 7.85743164,5.12241617 7.38253689,5.12241617 C6.90764213,5.12241617 6.45439593,5.32105699 6.13253689,5.67024431 C5.79558655,6.03009795 5.61257473,6.50736407 5.62253689,7.00024431 C5.61125398,7.49715701 5.80258251,7.97728331 6.15253689,8.33024431 C6.46211316,8.68625231 6.91075392,8.89066495 7.38253689,8.89066495 C7.85431986,8.89066495 8.30296062,8.68625231 8.61253689,8.33024431 C8.95864099,7.97477228 9.14929776,7.4963317 9.14253689,7.00024431 L9.14253689,7.00024431 Z M19.6825369,29.0702443 C19.4463891,29.0749444 19.2199531,28.9763351 19.0625369,28.8002443 C18.9081846,28.6427106 18.8219803,28.4307918 18.8225342,28.2102443 C18.8235505,27.9870451 18.9093404,27.7725704 19.0625369,27.6102443 C19.223997,27.4410457 19.4486869,27.3468209 19.6825369,27.3502443 L33.3325369,27.3502443 C33.5639831,27.3386499 33.789529,27.4255273 33.9533914,27.5893898 C34.1172539,27.7532522 34.2041313,27.9787981 34.1925369,28.2102443 C34.1980752,28.4399836 34.109248,28.6619606 33.9467506,28.824458 C33.7842532,28.9869554 33.5622762,29.0757826 33.3325369,29.0702443 L19.6825369,29.0702443 Z M19.6825369,34.1902443 C19.4510907,34.2018388 19.2255448,34.1149613 19.0616823,33.9510989 C18.8978199,33.7872364 18.8109424,33.5616905 18.8225369,33.3302443 C18.8169986,33.100505 18.9058258,32.878528 19.0683232,32.7160306 C19.2308206,32.5535332 19.4527976,32.464706 19.6825369,32.4702443 L33.3325369,32.4702443 C33.5622762,32.464706 33.7842532,32.5535332 33.9467506,32.7160306 C34.109248,32.878528 34.1980752,33.100505 34.1925369,33.3302443 C34.2041313,33.5616905 34.1172539,33.7872364 33.9533914,33.9510989 C33.789529,34.1149613 33.5639831,34.2018388 33.3325369,34.1902443 L19.6825369,34.1902443 Z" id="Shape"></path>
        </g>
    </g>
</svg>