<?xml version="1.0" encoding="UTF-8"?>
<svg width="60px" height="60px" viewBox="0 0 60 60" version="1.1" xmlns="http://www.w3.org/2000/svg" xmlns:xlink="http://www.w3.org/1999/xlink">
    <title>hero</title>
    <g id="hero" stroke="none" stroke-width="1" fill="none" fill-rule="evenodd">
        <rect id="Rectangle" stroke="#43536D" stroke-width="1.5" fill="#FFFFFF" x="14.75" y="19.75" width="19.5" height="21.5" rx="2"></rect>
        <path d="M18.605403,25.404891 C18.4465961,25.4039363 18.29582,25.3349341 18.1912899,25.2153715 C18.0717326,25.1108369 18.0027333,24.9600543 18.0017806,24.8012407 C18.0042378,24.6407438 18.0728023,24.4883716 18.1912899,24.3800907 C18.2986191,24.2652629 18.448238,24.1993263 18.605403,24.1975923 L28.2212473,24.1975923 C28.3717956,24.1978399 28.5159388,24.2585344 28.6213226,24.3660523 C28.7354335,24.4819565 28.7985923,24.638597 28.7968315,24.8012407 C28.798283,24.9617588 28.7350291,25.116105 28.6213226,25.2294098 C28.5185995,25.3415995 28.3733567,25.4053052 28.2212473,25.404891 L18.605403,25.404891 Z" id="Path" fill="#43536D" fill-rule="nonzero"></path>
        <path d="M18.5046505,28.9987024 C18.3796214,29.0086669 18.2561414,28.9609611 18.1594551,28.8653382 C18.0482232,28.7469836 17.9897359,28.5728647 18.0014843,28.395054 C17.9988676,28.2313507 18.0566894,28.0746287 18.1594551,27.9668849 C18.2495237,27.8539549 18.3743717,27.7904888 18.5046505,27.7913959 L26.5202057,27.7913959 C26.6470008,27.7909895 26.7680719,27.8546952 26.8536996,27.9668849 C26.9484828,28.0801897 27.0012099,28.2345359 27,28.395054 C27.0014677,28.5576977 26.9488199,28.7143382 26.8536996,28.8302424 C26.765854,28.9377603 26.6456994,28.9984548 26.5202057,28.9987024 L18.5046505,28.9987024 Z" id="Path" fill="#43536D" fill-rule="nonzero"></path>
        <path d="M18.6029287,33.404889 C18.4953865,33.4081881 18.3922671,33.3389726 18.3205794,33.2153715 C18.250287,33.104796 18.2110294,32.9560466 18.2112817,32.8012407 C18.2117445,32.6445734 18.2508134,32.49403 18.3205794,32.3800907 C18.3941087,32.2613273 18.4964329,32.1951894 18.6029287,32.1975923 L24.8191676,32.1975923 C24.9245687,32.189454 25.0272827,32.2504348 25.101906,32.3654525 C25.1765293,32.4804703 25.2160935,32.6387847 25.2108134,32.8012407 C25.2133355,32.9624985 25.1728834,33.1183079 25.0988818,33.2323675 C25.0248801,33.3464271 24.9237913,33.4087765 24.8191676,33.404889 L18.6029287,33.404889 Z" id="Path" fill="#43536D" fill-rule="nonzero"></path>
        <path d="M18.8149059,36.9987024 C18.6524569,37.0068407 18.4941493,36.9458599 18.3791365,36.8308422 C18.2641237,36.7158244 18.2031456,36.55751 18.2112835,36.395054 C18.2073963,36.2337962 18.2697429,36.0779868 18.3837976,35.9639272 C18.4978524,35.8498676 18.653655,35.7875182 18.8149059,35.7914057 L28.3956559,35.7914057 C28.5569068,35.7875182 28.7127094,35.8498676 28.8267642,35.9639272 C28.9408189,36.0779868 29.0031655,36.2337962 28.9992782,36.395054 C29.0074162,36.55751 28.9464381,36.7158244 28.8314253,36.8308422 C28.7164125,36.9458599 28.5581049,37.0068407 28.3956559,36.9987024 L18.8149059,36.9987024 Z" id="Path" fill="#43536D" fill-rule="nonzero"></path>
        <rect id="Rectangle" stroke="#43536D" stroke-width="1.5" x="5.75" y="13.75" width="48.5" height="32.5" rx="2"></rect>
    </g>
</svg>