<?xml version="1.0" encoding="UTF-8"?>
<svg width="60px" height="60px" viewBox="0 0 60 60" version="1.1" xmlns="http://www.w3.org/2000/svg" xmlns:xlink="http://www.w3.org/1999/xlink">
    <title>imagetext</title>
    <g id="imagetext" stroke="none" stroke-width="1" fill="none" fill-rule="evenodd">
        <g id="Group" transform="translate(10.001583, 22.000000)" fill="#43536D" fill-rule="nonzero">
            <path d="M0.603820169,16.8040565 C0.44592432,16.8057936 0.294967881,16.7392675 0.189707165,16.6215582 C0.0712195182,16.5132772 0.00265500768,16.3609051 9.57086219e-05,16.2004082 L9.57086219e-05,0.603819818 C-0.00294121226,0.440116484 0.0664245666,0.283394459 0.189707165,0.175650651 C0.297757826,0.0627207127 0.447531406,-0.000745401095 0.603820169,0.000171484249 L23.3940731,0.000171484249 C23.555324,-0.00371595361 23.7111267,0.0586333759 23.8251814,0.172693005 C23.9392361,0.286752634 24.0015827,0.442561994 23.9978669,0.603819818 L23.9978669,16.2004082 C23.996984,16.3570754 23.9367692,16.5076188 23.8292427,16.6215582 C23.7180264,16.7433513 23.5588911,16.8100883 23.3940731,16.8040565 L0.603820169,16.8040565 Z M6.73128886,10.2762315 L1.06706522,16.5934815 C0.962836901,16.7182831 0.808529675,16.7902962 0.645933356,16.7900182 C0.48520469,16.7906948 0.32911294,16.7361842 0.203744894,16.6355965 C0.0782394094,16.543548 0.00294498192,16.3981457 9.9719957e-05,16.2425232 C-0.00247470801,16.0826334 0.049526202,15.9266239 0.147593978,15.8003157 L6.18381743,9.12508816 C6.2786171,9.01020625 6.41471155,8.93711535 6.56283611,8.92153233 C6.70612795,8.89986961 6.85182397,8.9407685 6.96291138,9.033839 L10.5284945,11.5396815 L15.5399638,5.26454649 C15.6559212,5.12193995 15.829941,5.03915069 16.0137371,5.03915069 C16.1975332,5.03915069 16.3715531,5.12193995 16.4875105,5.26454649 L23.864337,15.856469 C23.9574735,15.9969203 23.9926842,16.1679512 23.9626011,16.3337723 C23.9414806,16.4867841 23.8542292,16.6227995 23.7239597,16.7057882 C23.5854,16.7905196 23.4202308,16.8205517 23.2607147,16.7900182 C23.099392,16.7712655 22.9537905,16.6844118 22.8606394,16.5513665 L15.9751334,6.67539899 L11.1391357,12.7469782 C11.0480604,12.8777051 10.9045591,12.962272 10.7460793,12.9786107 C10.5897527,12.9989801 10.4315542,12.958801 10.3038909,12.866304 L6.73128886,10.2762315 Z M1.20744251,15.5757023 L22.7904508,15.5757023 L22.7904508,1.20746815 L1.20744251,1.20746815 L1.20744251,15.5757023 Z M7.62970351,4.91358816 C7.64348763,5.57781724 7.39070879,6.21990314 6.92781706,6.69645649 C6.48510484,7.18075146 5.85728266,7.45384035 5.2011764,7.44750733 C4.54264578,7.46314717 3.90987434,7.19158174 3.46751687,6.70347566 C3.00421895,6.22433452 2.75153083,5.57995207 2.76563043,4.91358816 C2.75325941,4.25376613 3.00610665,3.61656366 3.46751687,3.14475816 C3.90860072,2.66894029 4.53142078,2.40346457 5.18011981,2.41476482 C5.8337146,2.40659075 6.46051558,2.67413927 6.90676047,3.15177732 C7.37480674,3.61795688 7.63539075,4.25299962 7.62970351,4.91358816 L7.62970351,4.91358816 Z M6.41543995,4.91358816 C6.42243226,4.5676273 6.29397874,4.23262626 6.05747787,3.98003899 C5.83156937,3.73493859 5.513442,3.59550929 5.18011981,3.59550929 C4.84679761,3.59550929 4.52867025,3.73493859 4.30276175,3.98003899 C4.06626087,4.23262626 3.93780736,4.5676273 3.94479966,4.91358816 C3.93688034,5.26237947 4.07117124,5.59938812 4.31679948,5.84713733 C4.53408687,6.09702528 4.84898174,6.24050592 5.18011981,6.24050592 C5.51125788,6.24050592 5.82615275,6.09702528 6.04344014,5.84713733 C6.28636592,5.59762558 6.42018532,5.26180017 6.41543995,4.91358816 L6.41543995,4.91358816 Z" id="Shape"></path>
            <path d="M28.6038202,3.40489104 C28.4450134,3.40393626 28.2942373,3.33493406 28.1897072,3.21537151 C28.0701498,3.11083692 28.0011505,2.96005433 28.0001978,2.80124068 C28.002655,2.64074377 28.0712195,2.48837163 28.1897072,2.38009068 C28.2970363,2.26526286 28.4466552,2.19932629 28.6038202,2.19759235 L38.2196645,2.19759235 C38.3702128,2.19783988 38.514356,2.25853438 38.6197398,2.36605235 C38.7338507,2.48195645 38.7970095,2.63859704 38.7952488,2.80124068 C38.7967002,2.96175879 38.7334463,3.11610498 38.6197398,3.22940985 C38.5170167,3.34159948 38.371774,3.40530517 38.2196645,3.40489104 L28.6038202,3.40489104 Z" id="Path"></path>
            <path d="M28.5030677,6.99870235 C28.3780386,7.00866689 28.2545587,6.96096114 28.1578723,6.86533819 C28.0466405,6.74698361 27.9881531,6.57286475 27.9999015,6.39505402 C27.9972849,6.23135068 28.0551066,6.07462866 28.1578723,5.96688485 C28.2479409,5.85395491 28.3727889,5.7904888 28.5030677,5.79139589 L36.5186229,5.79139589 C36.645418,5.79098953 36.7664891,5.85469522 36.8521168,5.96688485 C36.9469001,6.08018972 36.9996271,6.23453591 36.9984172,6.39505402 C36.9998849,6.55769766 36.9472372,6.71433824 36.8521168,6.83024235 C36.7642712,6.93776032 36.6441166,6.99845481 36.5186229,6.99870235 L28.5030677,6.99870235 Z" id="Path"></path>
            <path d="M28.6013459,11.404889 C28.4938037,11.4081881 28.3906843,11.3389726 28.3189966,11.2153715 C28.2487043,11.104796 28.2094467,10.9560466 28.2096989,10.8012407 C28.2101617,10.6445734 28.2492306,10.49403 28.3189966,10.3800907 C28.3925259,10.2613273 28.4948501,10.1951894 28.6013459,10.1975923 L34.8175848,10.1975923 C34.9229859,10.189454 35.0257,10.2504348 35.1003233,10.3654525 C35.1749465,10.4804703 35.2145107,10.6387847 35.2092306,10.8012407 C35.2117528,10.9624985 35.1713006,11.1183079 35.097299,11.2323675 C35.0232973,11.3464271 34.9222085,11.4087765 34.8175848,11.404889 L28.6013459,11.404889 Z" id="Path"></path>
            <path d="M28.8133231,14.9987024 C28.6508741,15.0068407 28.4925665,14.9458599 28.3775537,14.8308422 C28.2625409,14.7158244 28.2015628,14.55751 28.2097008,14.395054 C28.2058135,14.2337962 28.2681601,14.0779868 28.3822149,13.9639272 C28.4962696,13.8498676 28.6520722,13.7875182 28.8133231,13.7914057 L38.3940731,13.7914057 C38.555324,13.7875182 38.7111267,13.8498676 38.8251814,13.9639272 C38.9392361,14.0779868 39.0015827,14.2337962 38.9976955,14.395054 C39.0058334,14.55751 38.9448553,14.7158244 38.8298425,14.8308422 C38.7148297,14.9458599 38.5565221,15.0068407 38.3940731,14.9987024 L28.8133231,14.9987024 Z" id="Path"></path>
        </g>
    </g>
</svg>