<?xml version="1.0" encoding="UTF-8"?>
<svg width="60px" height="60px" viewBox="0 0 60 60" version="1.1" xmlns="http://www.w3.org/2000/svg" xmlns:xlink="http://www.w3.org/1999/xlink">
    <title>link</title>
    <g id="link" stroke="none" stroke-width="1" fill="none" fill-rule="evenodd">
        <path d="M21.7107183,17.2702636 C21.8854415,17.4178766 21.9905697,17.6317581 22.0008084,17.8602636 L22.0008084,28.1102636 C22.0041417,28.3441137 21.9099169,28.5688035 21.7407183,28.7302636 C21.5783922,28.8834601 21.3639175,28.96925 21.1407183,28.9702636 L10.8607183,28.9702636 C10.630979,28.975802 10.409002,28.8869747 10.2465046,28.7244773 C10.0840072,28.5619799 9.99517998,28.3400029 10.0007183,28.1102636 L10.0007183,17.8602636 C9.99941204,17.6375941 10.0898303,17.4242069 10.2507183,17.2702636 C10.4042177,17.094619 10.627495,16.9957914 10.8607183,17.0002636 L21.1107183,17.0002636 C21.3393735,17.0037645 21.5564536,17.1014505 21.7107183,17.2702636 Z M21.7107183,30.9402636 C21.8820175,31.1002693 21.9766514,31.3259347 21.9707183,31.5602636 L21.9707183,41.8102636 C21.9675172,42.0282495 21.8732339,42.2349476 21.7107183,42.3802636 C21.5493902,42.5362623 21.3350845,42.6255564 21.1107183,42.6303003 L10.8607183,42.6303003 C10.6320329,42.6323848 10.4121404,42.542265 10.2507183,42.3802636 C10.090885,42.2339108 10.0001254,42.0269788 10.0007183,41.8102636 L10.0007183,31.5602636 C9.99090561,31.327243 10.0820114,31.1013006 10.2507183,30.9402636 C10.4121404,30.7782623 10.6320329,30.6881425 10.8607183,30.690227 L21.1107183,30.690227 C21.3350845,30.6949709 21.5493902,30.784265 21.7107183,30.9402636 Z M20.2507183,18.7202636 L11.7207183,18.7202636 L11.7207183,27.2502636 L20.2507183,27.2502636 L20.2507183,18.7202636 Z M20.2507183,32.3802636 L11.7207183,32.3802636 L11.7207183,40.9402636 L20.2507183,40.9402636 L20.2507183,32.3802636 Z M35.3807183,17.2702636 C35.5378287,17.4267861 35.627544,17.638514 35.6307715,17.8602636 L35.6307715,28.1102636 C35.6332801,28.3419773 35.5432958,28.5651385 35.3807183,28.7302636 C35.2158519,28.8921243 34.9915963,28.978933 34.7607183,28.9702636 L24.5107183,28.9702636 C24.290583,28.9687256 24.079419,28.8828284 23.9207183,28.7302636 C23.7446275,28.5728474 23.6460182,28.3464114 23.6507183,28.1102636 L23.6507183,17.8602636 C23.6520756,17.6340065 23.7503811,17.419191 23.9207183,17.2702636 C24.071172,17.101985 24.2850213,17.0041217 24.5107183,17.0002636 L34.7607183,17.0002636 C34.9971343,16.9941982 35.224119,17.0930464 35.3807183,17.2702636 Z M35.3807183,30.9402636 C35.5452343,31.1041107 35.6355631,31.328126 35.6307183,31.5602636 L35.6307183,41.8102636 C35.6266231,42.0259761 35.5366385,42.2311411 35.3807183,42.3802636 C35.2168713,42.5447797 34.992856,42.6351084 34.7607183,42.6302636 L24.5107183,42.6302636 C24.2894077,42.6250283 24.0784161,42.5356251 23.9207183,42.3802636 C23.7513192,42.2391798 23.6525711,42.0307115 23.6507183,41.8102636 L23.6507183,31.5602636 C23.6446529,31.3238477 23.7435011,31.096863 23.9207183,30.9402636 C24.0784161,30.7849022 24.2894077,30.6954989 24.5107183,30.6902636 L34.7607183,30.6902636 C34.992856,30.6854189 35.2168713,30.7757476 35.3807183,30.9402636 Z M33.9007183,18.7202636 L25.3807183,18.7202636 L25.3807183,27.2502636 L33.9007183,27.2502636 L33.9007183,18.7202636 Z M33.9007183,32.3802636 L25.3807183,32.3802636 L25.3807183,40.9402636 L33.9007183,40.9402636 L33.9007183,32.3802636 Z M49.0007183,17.2702636 C49.1616063,17.4242069 49.2520246,17.6375941 49.2507183,17.8602636 L49.2507183,28.1102636 C49.2562566,28.3400029 49.1674294,28.5619799 49.004932,28.7244773 C48.8424346,28.8869747 48.6204576,28.975802 48.3907183,28.9702636 L38.1707183,28.9702636 C37.9532058,28.9703551 37.7445686,28.8840225 37.5907183,28.7302636 C37.4308403,28.5641257 37.344371,28.3407468 37.3507183,28.1102636 L37.3507183,17.8602636 C37.3501617,17.6397162 37.436366,17.4277973 37.5907183,17.2702636 C37.7357435,17.100405 37.9473764,17.0018862 38.1707183,17.0002636 L48.4207183,17.0002636 C48.6434749,17.0044513 48.8541072,17.1025043 49.0007183,17.2702636 L49.0007183,17.2702636 Z M49.0007183,30.9402636 C49.1694252,31.1013006 49.260531,31.327243 49.2507183,31.5602636 L49.2507183,41.8102636 C49.2513112,42.0269788 49.1605516,42.2339108 49.0007183,42.3802636 C48.8392962,42.542265 48.6194037,42.6323848 48.3907183,42.6303003 L38.1707183,42.6303003 C37.9519942,42.6266187 37.7435525,42.5367732 37.5907183,42.3802636 C37.4375406,42.2301201 37.351071,42.0247546 37.3507183,41.8102636 L37.3507183,31.5602636 C37.342049,31.3293857 37.4288576,31.10513 37.5907183,30.9402636 C37.7435525,30.7837541 37.9519942,30.6939086 38.1707183,30.6902636 L48.4207183,30.6902636 C48.6389851,30.6960107 48.8466699,30.78553 49.0007183,30.9402636 Z M47.6007183,18.7202636 L39.0007183,18.7202636 L39.0007183,27.2502636 L47.6007183,27.2502636 L47.6007183,18.7202636 Z M47.6007183,32.3802636 L39.0007183,32.3802636 L39.0007183,40.9402636 L47.6007183,40.9402636 L47.6007183,32.3802636 Z" id="Shape" fill="#43536D" fill-rule="nonzero"></path>
    </g>
</svg>