<?xml version="1.0" encoding="UTF-8"?>
<svg width="60px" height="60px" viewBox="0 0 60 60" version="1.1" xmlns="http://www.w3.org/2000/svg" xmlns:xlink="http://www.w3.org/1999/xlink">
    <title>slider</title>
    <g id="slider" stroke="none" stroke-width="1" fill="none" fill-rule="evenodd">
        <g id="Group" transform="translate(10.000000, 21.000000)" fill="#43536D" fill-rule="nonzero">
            <path d="M5.13019759,6.00001425 C5.13231877,6.22869967 5.0421989,6.44859214 4.88019759,6.61001425 L2.05019759,9.39001425 L4.88019759,12.2200142 C5.04010383,12.3746332 5.13033554,12.58758 5.13019759,12.8100142 C5.12856482,13.0350179 5.03881383,13.2504203 4.88019759,13.4100142 C4.71533124,13.5718749 4.49107557,13.6586836 4.26019759,13.6500142 C4.03275221,13.6559279 3.81263662,13.5693251 3.65019759,13.4100142 L0.250197593,10.0000142 C0.0861998409,9.84823658 -0.00482760641,9.63341181 0.000197593168,9.41001425 C-0.00267993146,9.18411494 0.0877695313,8.96703623 0.250197593,8.81001425 L3.65019759,5.37001425 C3.81263662,5.21070343 4.03275221,5.12410058 4.26019759,5.13001425 C4.49107557,5.12134491 4.71533124,5.20815356 4.88019759,5.37001425 C5.04527028,5.53758349 5.13545662,5.76485306 5.13019759,6.00001425 L5.13019759,6.00001425 Z M32.2101976,0.25001425 C32.3788791,0.407674943 32.473276,0.629144421 32.4702706,0.86001425 L32.4702706,18.0000071 C32.469517,18.2185595 32.3747879,18.4262348 32.2101976,18.5700142 C32.0512171,18.7295471 31.8354202,18.8194625 31.6101976,18.8200214 L7.67019759,18.8200214 C7.4505135,18.82095 7.24036078,18.730367 7.09019759,18.5700142 C6.93507131,18.4212028 6.84823566,18.2149681 6.85019759,18.0000071 L6.85019759,0.86001425 C6.84428392,0.632568864 6.93088677,0.412453277 7.09019759,0.25001425 C7.24036078,0.0896615237 7.4505135,-0.000921545926 7.67019759,7.07020136e-06 L31.6101976,7.07020136e-06 C31.8354202,0.000565985942 32.0512171,0.090481353 32.2101976,0.25001425 Z M30.7501976,1.72001425 L8.53019759,1.72001425 L8.53019759,17.1000142 L30.7501976,17.1000142 L30.7501976,1.72001425 Z M39.2801976,9.41001425 C39.277651,9.63816799 39.1753328,9.85376695 39.0001976,10.0000142 L35.6001976,13.4100142 C35.2522588,13.7290446 34.7181364,13.7290446 34.3701976,13.4100142 C34.2115814,13.2504203 34.1218304,13.0350179 34.1201974,12.8100142 C34.1200596,12.58758 34.2102914,12.3746332 34.3701976,12.2200142 L37.2001976,9.39001425 L34.4001976,6.60001425 C34.2406647,6.44103377 34.1507493,6.22523688 34.1501976,6.00001425 C34.1476357,5.76830064 34.2376201,5.54513942 34.4001976,5.38001425 C34.7481364,5.06098387 35.2822588,5.06098387 35.6301976,5.38001425 L39.0001976,8.81001425 C39.1737175,8.9617671 39.2753487,9.17954828 39.2801976,9.41001425 L39.2801976,9.41001425 Z" id="Shape"></path>
        </g>
    </g>
</svg>