<?xml version="1.0" encoding="UTF-8"?>
<svg width="60px" height="60px" viewBox="0 0 60 60" version="1.1" xmlns="http://www.w3.org/2000/svg" xmlns:xlink="http://www.w3.org/1999/xlink">
    <title>testimonial</title>
    <g id="testimonial" stroke="none" stroke-width="1" fill="none" fill-rule="evenodd">
        <g id="Group" transform="translate(9.000000, 9.000000)" fill="#43536D" fill-rule="nonzero">
            <path d="M6.35057665,41.0000425 C6.19956775,41.0282215 6.04365545,40.9919629 5.92057665,40.9000425 C5.79780985,40.798109 5.7074511,40.6625709 5.66057665,40.5100425 C5.60062833,40.3522099 5.60062833,40.1778751 5.66057665,40.0200425 L9.47057665,29.6800425 L6.07057665,29.6800425 C5.01490698,29.6824012 3.97827174,29.3990542 3.07057665,28.8600425 C2.13924419,28.3341058 1.36313288,27.571792 0.820576652,26.6500425 C0.281101887,25.742544 -0.00228068683,24.7057784 0.000576652483,23.6500425 L0.000576652483,6.07004247 C-0.0145777492,4.99065278 0.269226279,3.92811819 0.820576652,3.00004247 C1.350714,2.10034042 2.1008746,1.35017982 3.00057665,0.820042474 C3.90827174,0.281030751 4.94490698,-0.002316215 6.00057665,2.10782312e-05 L35.0005767,2.10782312e-05 C36.0563126,-0.00281486516 37.0930781,0.280567709 38.0005767,0.820042474 C38.9464679,1.33062249 39.7400924,2.0828405 40.3005767,3.00004247 C40.8395884,3.90773756 41.1229353,4.9443728 41.1207,6.00004247 L41.1207,23.7400425 C41.1274853,24.8120785 40.8441356,25.866001 40.3005767,26.7900425 C39.7720801,27.7090083 39.0095425,28.4715459 38.0905767,29.0000425 C37.1811489,29.5349595 36.1456552,29.8179944 35.0905767,29.8200425 L20.7905767,29.8200425 L6.81057665,41.0000425 L6.35057665,41.0000425 Z M6.07057665,1.39004247 C5.25400326,1.41116272 4.45599155,1.63818329 3.75057665,2.05004247 C3.05482832,2.45548179 2.47601597,3.03429414 2.07057665,3.73004247 C1.65102922,4.4379601 1.43316393,5.24717404 1.44039361,6.07004247 L1.44039361,23.7400425 C1.43316393,24.5629109 1.65102922,25.3721248 2.07057665,26.0800425 C2.47601597,26.7757908 3.05482832,27.3546032 3.75057665,27.7600425 C4.45483814,28.1733364 5.25410073,28.3972678 6.07057665,28.4100425 L10.6205767,28.4100425 C10.8372703,28.4364825 11.0312333,28.5572519 11.1505767,28.7400425 C11.2878112,28.93103 11.3484684,29.1665224 11.3205767,29.4000425 L7.91057665,38.3300425 L20.0905767,28.5800425 C20.1986612,28.4703081 20.3465546,28.4089865 20.5005767,28.4100425 L35.0605767,28.4100425 C35.880122,28.4161377 36.6857709,28.1983013 37.3905767,27.7800425 C38.090673,27.3646907 38.6752248,26.7801388 39.0905767,26.0800425 C39.5174852,25.3747873 39.7391301,24.5643983 39.7308152,23.7400425 L39.7308152,5.94004247 C39.7377966,5.11900749 39.5161815,4.31218997 39.0905767,3.61004247 C38.6783518,2.90752314 38.093096,2.32226731 37.3905767,1.91004247 C36.6884292,1.48443765 35.8816116,1.26282253 35.0605767,1.26987153 L6.07057665,1.39004247 Z" id="Shape"></path>
        </g>
    </g>
</svg>