<?xml version="1.0" encoding="UTF-8"?>
<svg width="60px" height="60px" viewBox="0 0 60 60" version="1.1" xmlns="http://www.w3.org/2000/svg" xmlns:xlink="http://www.w3.org/1999/xlink">
    <title>text</title>
    <g id="text" stroke="none" stroke-width="1" fill="none" fill-rule="evenodd">
        <path d="M35.8002818,48.5606796 L23.8002818,48.5606796 C23.5789712,48.5554444 23.3679797,48.4660411 23.2102818,48.3106796 C23.0408828,48.1695958 22.9421346,47.9611275 22.9402818,47.7406796 C22.9437827,47.5120244 23.0414687,47.2949443 23.2102818,47.1406796 C23.3617722,46.975091 23.5758516,46.880751 23.8002818,46.8806796 C25.2306993,46.8806796 26.3902818,45.7210972 26.3902818,44.2906796 L26.3902818,17.8106796 L15.2602818,17.8106796 C14.5761271,17.7988965 13.9175043,18.070307 13.4402818,18.5606796 C12.9446869,19.0392689 12.6695348,19.7018063 12.6802818,20.3906796 C12.6808384,20.6112271 12.5946341,20.8231459 12.4402818,20.9806796 C12.2952567,21.1505383 12.0836238,21.249057 11.8602818,21.2506796 C11.6371306,21.2544279 11.4228056,21.1636122 11.2702818,21.0006796 C11.0946372,20.8471802 10.9958096,20.623903 11.0001364,20.3906796 L11.0001364,11.8206796 C10.9971208,11.6034376 11.0883215,11.3955 11.2502818,11.2506796 C11.4074682,11.0824352 11.6302325,10.9911383 11.8602818,11.0006796 L47.7402818,11.0006796 C47.956997,11 48.163929,11.0908464 48.3102818,11.2506796 C48.468105,11.3984632 48.5584606,11.6044742 48.5602818,11.8206796 L48.5602818,20.3906796 C48.5571075,20.6124293 48.4673923,20.8241572 48.3102818,20.9806796 C48.169198,21.1500787 47.9607297,21.2488269 47.7402818,21.2506796 C47.5116266,21.2471788 47.2945465,21.1494928 47.1402818,20.9806796 C46.9725848,20.8307114 46.8778071,20.6156389 46.8802818,20.3906796 C46.880287,19.704685 46.6070941,19.0469318 46.1210852,18.5627995 C45.6350764,18.0786672 44.9762714,17.8080208 44.2902818,17.8106796 L33.1802818,17.8106796 L33.1802818,44.2906796 C33.1802712,45.717201 34.3337711,46.8751718 35.7602818,46.8806796 L35.7602818,46.8806796 C35.983481,46.8816933 36.1979558,46.9674832 36.3602818,47.1206796 C36.5363727,47.2780959 36.6349819,47.5045319 36.6302818,47.7406796 C36.635307,47.9640772 36.5442796,48.178902 36.3802818,48.3306796 C36.221529,48.4756123 36.0152175,48.5574254 35.8002818,48.5606796 L35.8002818,48.5606796 Z M27.2402818,46.8806796 L32.3602818,46.8806796 C31.8044793,46.131289 31.503112,45.2236827 31.5002818,44.2906796 L31.5002818,17.0006796 C31.4993461,16.7809956 31.5899291,16.5708428 31.7502818,16.4206796 C31.9114051,16.2593511 32.1324246,16.1723926 32.3602818,16.1806796 L44.2902818,16.1806796 C45.2191222,16.1697967 46.1269487,16.4572166 46.8802818,17.0006796 L46.8802818,12.6806796 L12.6802818,12.6806796 L12.6802818,17.0006796 C13.4305354,16.4586198 14.3347442,16.1712356 15.2602818,16.1806796 L27.2602818,16.1806796 C27.4747728,16.1810323 27.6801383,16.267502 27.8302818,16.4206796 C27.9867914,16.5735139 28.0766369,16.7819555 28.0802818,17.0006796 L28.0802818,44.2906796 C28.0804814,45.2210034 27.7864629,46.1275604 27.2402818,46.8806796 L27.2402818,46.8806796 Z" id="Shape" fill="#43536D" fill-rule="nonzero"></path>
    </g>
</svg>