<?xml version="1.0" encoding="UTF-8"?>
<svg width="60px" height="60px" viewBox="0 0 60 60" version="1.1" xmlns="http://www.w3.org/2000/svg" xmlns:xlink="http://www.w3.org/1999/xlink">
    <title>narrow</title>
    <g id="narrow" stroke="none" stroke-width="1" fill="none" fill-rule="evenodd">
        <line x1="30.5" y1="6.5" x2="30.5" y2="46.5" id="Line-Copy" stroke-opacity="0.16" stroke="#43536D" stroke-linecap="square" stroke-dasharray="2"></line>
        <line x1="50.5" y1="6.5" x2="50.5" y2="46.5" id="Line-Copy" stroke-opacity="0.479913031" stroke="#43536D" stroke-linecap="square" stroke-dasharray="2"></line>
        <line x1="9.5" y1="6.5" x2="9.5" y2="46.5" id="Line-Copy" stroke-opacity="0.479913031" stroke="#43536D" stroke-linecap="square" stroke-dasharray="2"></line>
        <rect id="Rectangle" stroke="#43536D" fill="#A5ADB9" x="14.5" y="18.5" width="31" height="14" rx="1"></rect>
        <g id="NARROW" transform="translate(15.510000, 52.728000)" fill="#43536D" fill-rule="nonzero">
            <polygon id="Path" points="0 4.272 0.912 4.272 0.912 1.602 2.946 4.272 3.732 4.272 3.732 0.072 2.82 0.072 2.82 2.658 0.852 0.072 0 0.072"></polygon>
            <path d="M4.38,4.272 L5.322,4.272 L5.706,3.33 L7.482,3.33 L7.866,4.272 L8.832,4.272 L7.032,0.042 L6.18,0.042 L4.38,4.272 Z M6.036,2.514 L6.594,1.152 L7.152,2.514 L6.036,2.514 Z" id="Shape"></path>
            <path d="M9.48,4.272 L10.404,4.272 L10.404,2.928 L11.13,2.928 L12.03,4.272 L13.11,4.272 L12.084,2.772 C12.618,2.574 12.984,2.148 12.984,1.47 L12.984,1.458 C12.984,1.056 12.864,0.738 12.624,0.498 C12.342,0.216 11.934,0.072 11.4,0.072 L9.48,0.072 L9.48,4.272 Z M10.404,2.112 L10.404,0.906 L11.322,0.906 C11.778,0.906 12.048,1.104 12.048,1.506 L12.048,1.518 C12.048,1.878 11.796,2.112 11.34,2.112 L10.404,2.112 Z" id="Shape"></path>
            <path d="M13.818,4.272 L14.742,4.272 L14.742,2.928 L15.468,2.928 L16.368,4.272 L17.448,4.272 L16.422,2.772 C16.956,2.574 17.322,2.148 17.322,1.47 L17.322,1.458 C17.322,1.056 17.202,0.738 16.962,0.498 C16.68,0.216 16.272,0.072 15.738,0.072 L13.818,0.072 L13.818,4.272 Z M14.742,2.112 L14.742,0.906 L15.66,0.906 C16.116,0.906 16.386,1.104 16.386,1.506 L16.386,1.518 C16.386,1.878 16.134,2.112 15.678,2.112 L14.742,2.112 Z" id="Shape"></path>
            <path d="M20.196,4.344 C21.492,4.344 22.434,3.366 22.434,2.172 L22.434,2.16 C22.434,0.966 21.504,0 20.208,0 C18.912,0 17.97,0.978 17.97,2.172 L17.97,2.184 C17.97,3.378 18.9,4.344 20.196,4.344 Z M20.208,3.492 C19.464,3.492 18.936,2.892 18.936,2.172 L18.936,2.16 C18.936,1.44 19.452,0.852 20.196,0.852 C20.94,0.852 21.468,1.452 21.468,2.172 L21.468,2.184 C21.468,2.904 20.952,3.492 20.208,3.492 Z" id="Shape"></path>
            <polygon id="Path" points="24.366 4.302 25.17 4.302 26.118 1.554 27.066 4.302 27.87 4.302 29.304 0.072 28.338 0.072 27.468 2.916 26.526 0.06 25.734 0.06 24.792 2.916 23.922 0.072 22.932 0.072"></polygon>
        </g>
    </g>
</svg>