<?xml version="1.0" encoding="UTF-8"?>
<svg width="60px" height="60px" viewBox="0 0 60 60" version="1.1" xmlns="http://www.w3.org/2000/svg" xmlns:xlink="http://www.w3.org/1999/xlink">
    <title>standard</title>
    <g id="standard" stroke="none" stroke-width="1" fill="none" fill-rule="evenodd">
        <line x1="30.5" y1="6.5" x2="30.5" y2="46.5" id="Line-Copy" stroke-opacity="0.16" stroke="#43536D" stroke-linecap="square" stroke-dasharray="2"></line>
        <line x1="50.5" y1="6.5" x2="50.5" y2="46.5" id="Line-Copy" stroke-opacity="0.479913031" stroke="#43536D" stroke-linecap="square" stroke-dasharray="2"></line>
        <line x1="9.5" y1="6.5" x2="9.5" y2="46.5" id="Line-Copy" stroke-opacity="0.479913031" stroke="#43536D" stroke-linecap="square" stroke-dasharray="2"></line>
        <rect id="Rectangle" stroke="#43536D" fill="#A5ADB9" x="9.5" y="18.5" width="41" height="14" rx="1"></rect>
        <g id="STANDARD" transform="translate(12.381000, 52.740000)" fill="#43536D" fill-rule="nonzero">
            <path d="M1.782,4.32 C2.688,4.32 3.324,3.852 3.324,3.018 L3.324,3.006 C3.324,2.274 2.844,1.974 1.992,1.746 C1.266,1.554 1.086,1.476 1.086,1.194 L1.086,1.182 C1.086,0.972 1.266,0.816 1.626,0.816 C1.986,0.816 2.34,0.972 2.718,1.23 L3.198,0.534 C2.766,0.192 2.256,0 1.638,0 C0.774,0 0.168,0.504 0.168,1.266 L0.168,1.278 C0.168,2.106 0.708,2.352 1.56,2.562 C2.262,2.736 2.406,2.862 2.406,3.096 L2.406,3.108 C2.406,3.354 2.184,3.504 1.8,3.504 C1.32,3.504 0.93,3.306 0.546,2.994 L0,3.648 C0.504,4.104 1.14,4.32 1.782,4.32 Z" id="Path"></path>
            <polygon id="Path" points="5.106 4.26 6.03 4.26 6.03 0.912 7.308 0.912 7.308 0.06 3.828 0.06 3.828 0.912 5.106 0.912"></polygon>
            <path d="M7.656,4.26 L8.598,4.26 L8.982,3.318 L10.758,3.318 L11.142,4.26 L12.108,4.26 L10.308,0.03 L9.456,0.03 L7.656,4.26 Z M9.312,2.502 L9.87,1.14 L10.428,2.502 L9.312,2.502 Z" id="Shape"></path>
            <polygon id="Path" points="12.756 4.26 13.668 4.26 13.668 1.59 15.702 4.26 16.488 4.26 16.488 0.06 15.576 0.06 15.576 2.646 13.608 0.06 12.756 0.06"></polygon>
            <path d="M17.496,4.26 L19.134,4.26 C20.454,4.26 21.366,3.342 21.366,2.16 L21.366,2.148 C21.366,0.966 20.454,0.06 19.134,0.06 L17.496,0.06 L17.496,4.26 Z M19.134,0.894 C19.884,0.894 20.4,1.416 20.4,2.16 L20.4,2.172 C20.4,2.916 19.884,3.426 19.134,3.426 L18.42,3.426 L18.42,0.894 L19.134,0.894 Z" id="Shape"></path>
            <path d="M21.828,4.26 L22.77,4.26 L23.154,3.318 L24.93,3.318 L25.314,4.26 L26.28,4.26 L24.48,0.03 L23.628,0.03 L21.828,4.26 Z M23.484,2.502 L24.042,1.14 L24.6,2.502 L23.484,2.502 Z" id="Shape"></path>
            <path d="M26.928,4.26 L27.852,4.26 L27.852,2.916 L28.578,2.916 L29.478,4.26 L30.558,4.26 L29.532,2.76 C30.066,2.562 30.432,2.136 30.432,1.458 L30.432,1.446 C30.432,1.044 30.312,0.726 30.072,0.486 C29.79,0.204 29.382,0.06 28.848,0.06 L26.928,0.06 L26.928,4.26 Z M27.852,2.1 L27.852,0.894 L28.77,0.894 C29.226,0.894 29.496,1.092 29.496,1.494 L29.496,1.506 C29.496,1.866 29.244,2.1 28.788,2.1 L27.852,2.1 Z" id="Shape"></path>
            <path d="M31.266,4.26 L32.904,4.26 C34.224,4.26 35.136,3.342 35.136,2.16 L35.136,2.148 C35.136,0.966 34.224,0.06 32.904,0.06 L31.266,0.06 L31.266,4.26 Z M32.904,0.894 C33.654,0.894 34.17,1.416 34.17,2.16 L34.17,2.172 C34.17,2.916 33.654,3.426 32.904,3.426 L32.19,3.426 L32.19,0.894 L32.904,0.894 Z" id="Shape"></path>
        </g>
    </g>
</svg>